<?xml version="1.0" encoding="UTF-8"?>
<svg xmlns="http://www.w3.org/2000/svg" id="Layer_1" data-name="Layer 1" viewBox="0 0 629.66 310.91">
  <defs>
    <style>.cls-1{fill:#952735;}</style>
  </defs>
  <path class="cls-1" d="M1242.85,387.32q20.55,0,32.48,10.65a29.43,29.43,0,0,1-4.25,11.68,24.78,24.78,0,0,1-8.44,8.63,33.32,33.32,0,0,0-19-6.35q-17.89,0-17.89,19.79v6.48H1255a54.42,54.42,0,0,1,1.65,12.3,41.88,41.88,0,0,1-1.65,11.68h-29.31v98.71a68.09,68.09,0,0,1-14.34,1.27,76,76,0,0,1-14.71-1.27v-99H1180a62.7,62.7,0,0,1-1.39-11.67,65.15,65.15,0,0,1,1.39-12.31h16.63v-1.77q0-23.61,13.32-36.23T1242.85,387.32Z" transform="translate(-645.67 -387.32)"></path>
  <path class="cls-1" d="M986.76,618.13h6.75v39.32h-6.75v-5.57a17.06,17.06,0,0,1-13.86,6.53,18.4,18.4,0,0,1-14.09-6,21,21,0,0,1-5.57-14.89c0-5.87,1.83-10.72,5.57-14.53a18.7,18.7,0,0,1,14.09-5.8,17.13,17.13,0,0,1,13.86,6.68Zm-3.3,9.61a12.6,12.6,0,0,0-9.75-4.11,12.35,12.35,0,0,0-9.69,4.11,15.6,15.6,0,0,0,0,20.1,12.38,12.38,0,0,0,9.69,4.11,12.63,12.63,0,0,0,9.75-4.11,15.37,15.37,0,0,0,0-20.1Z" transform="translate(-645.67 -387.32)"></path>
  <path class="cls-1" d="M1007.81,657.45h-7V601.91h7Z" transform="translate(-645.67 -387.32)"></path>
  <path class="cls-1" d="M1013.6,607.49a4.88,4.88,0,0,1,5.14-4.92,5,5,0,1,1-5.14,4.92Zm8.51,50h-7V618.13h7Z" transform="translate(-645.67 -387.32)"></path>
  <path class="cls-1" d="M1086.23,621.72c2.87,3,4.26,7.12,4.26,12.33v23.4h-7v-22.3c0-7.34-3.6-11.52-9.47-11.52-6.16,0-10.49,4.69-10.49,11.66v22.16h-7V635.29c0-7.33-3.67-11.66-9.54-11.66-6.16,0-10.56,4.69-10.56,11.81v22h-7.05V618.13h6.9v5.79a12.93,12.93,0,0,1,11.89-6.82c5.28,0,10.2,2.71,12.32,7.34,2.64-4.48,8.15-7.34,14.31-7.34Q1081.95,617.1,1086.23,621.72Z" transform="translate(-645.67 -387.32)"></path>
  <path class="cls-1" d="M1133.47,640.65h-31.33c1.18,6.68,5.58,11.23,13.79,11.23a24.8,24.8,0,0,0,13.72-4.41l3,5.36a29.09,29.09,0,0,1-16.87,5.5c-14.82,0-21-10.49-21-20.69a20.46,20.46,0,0,1,5.51-14.67c3.74-3.89,8.51-5.8,14.38-5.8,5.57,0,10.12,1.76,13.64,5.36s5.36,8.44,5.36,14.53C1133.69,637.57,1133.62,638.74,1133.47,640.65Zm-7-6.09a11.28,11.28,0,0,0-11.74-11.15c-6.46,0-11.37,4.62-12.55,11.15Z" transform="translate(-645.67 -387.32)"></path>
  <path class="cls-1" d="M1138.3,657.45V618.13h6.9v5.57c2.49-4.4,6.68-6.6,12.47-6.6a15.41,15.41,0,0,1,11.08,4.25c3,2.87,4.48,6.9,4.48,12.26v23.84h-7V635.59c0-7.63-4.11-12-10.06-12a10.14,10.14,0,0,0-7.85,3.37,12.7,12.7,0,0,0-3,8.66v21.79Z" transform="translate(-645.67 -387.32)"></path>
  <path class="cls-1" d="M1205.21,655.1a16.58,16.58,0,0,1-10.5,3.31c-8.29,0-12.54-5.36-12.54-14.75V624.14h-7v-6h7V604.19h6.9v13.94h13.94v6h-13.94v20c0,5.21,2.13,7.78,6.38,7.78a13,13,0,0,0,7-2.28Z" transform="translate(-645.67 -387.32)"></path>
  <path class="cls-1" d="M1210,652.46a20.41,20.41,0,0,1-5.8-14.74,20.19,20.19,0,0,1,20.69-20.62,19.56,19.56,0,0,1,14.75,6,20.25,20.25,0,0,1,5.87,14.6,20.47,20.47,0,0,1-5.87,14.74,19.8,19.8,0,0,1-14.75,5.95A20,20,0,0,1,1210,652.46Zm24.5-24.65a13.14,13.14,0,0,0-19.22,0,13.7,13.7,0,0,0-4,9.91,14.15,14.15,0,0,0,4,10,13.14,13.14,0,0,0,19.22,0,14.16,14.16,0,0,0,4-10A13.7,13.7,0,0,0,1234.47,627.81Z" transform="translate(-645.67 -387.32)"></path>
  <path class="cls-1" d="M1246.57,649.82l5.06-3.89a11.32,11.32,0,0,0,9.76,6.24c4.18,0,7-2.42,7-5.43,0-2-1.17-3.74-3.6-5-.8-.44-2.49-1.17-4.91-2.2s-4-1.76-4.84-2.2c-4-2.2-6-5.36-6-9.54a10,10,0,0,1,3.52-7.85c2.35-2.13,5.43-3.15,9.32-3.15,5,0,9.83,2.12,12.47,6.23l-4.47,4.26a9.88,9.88,0,0,0-8.44-4.55c-3.52,0-5.65,2.13-5.65,4.77q0,3.08,3.3,4.62l4.33,1.91a48.19,48.19,0,0,1,5.28,2.42c4.48,2.27,6.68,5.57,6.68,9.9a10.8,10.8,0,0,1-4,8.51,15,15,0,0,1-10.2,3.45A16.24,16.24,0,0,1,1246.57,649.82Z" transform="translate(-645.67 -387.32)"></path>
  <path class="cls-1" d="M919.16,588.12a130.62,130.62,0,0,1-239.42,0L679,588a77.82,77.82,0,0,0-33.35.15h0c21.83,64,82.52,110.11,153.78,110.11s132-46.14,153.79-110.11l-.63-.13a77.66,77.66,0,0,0-33.35.11Z" transform="translate(-645.67 -387.32)"></path>
  <path class="cls-1" d="M697.56,390.49q35.91,0,53.29,14.53t17.38,40.28q0,27.29-18.39,43.14T698.71,504.3q-12.94,0-23.48-.89v57.48a74.69,74.69,0,0,1-14.84,1.52,76.76,76.76,0,0,1-14.72-1.52V396.2Q669,390.49,697.56,390.49Zm1.15,88.31q20,0,29.49-8.95t9.46-24.3q0-13.82-9.9-21.63t-29.44-7.8a208,208,0,0,0-23.09,1.39V478Q685.51,478.79,698.71,478.8Z" transform="translate(-645.67 -387.32)"></path>
  <path class="cls-1" d="M794.41,424.75a18.9,18.9,0,0,1-13.64-5.46,18.46,18.46,0,0,1-.07-26.52,18.9,18.9,0,0,1,13.71-5.45,18.14,18.14,0,0,1,13.07,5.45,18.55,18.55,0,0,1,0,26.52A18.11,18.11,0,0,1,794.41,424.75Z" transform="translate(-645.67 -387.32)"></path>
  <path class="cls-1" d="M794.34,562.16a75.35,75.35,0,0,1-14.78-1.27V438.2a74.58,74.58,0,0,1,14.78-1.27A72.68,72.68,0,0,1,809,438.2V560.89A73.42,73.42,0,0,1,794.34,562.16Z" transform="translate(-645.67 -387.32)"></path>
  <path class="cls-1" d="M884.72,387.32q20.55,0,32.48,10.65A29.43,29.43,0,0,1,913,409.65a24.78,24.78,0,0,1-8.44,8.63,33.32,33.32,0,0,0-19-6.35q-17.88,0-17.89,19.79v6.48H896.9a53.31,53.31,0,0,1,1.65,12.3,41.88,41.88,0,0,1-1.65,11.68H867.59v98.71a68,68,0,0,1-14.34,1.27,76.11,76.11,0,0,1-14.71-1.27v-99H821.92a61.9,61.9,0,0,1-1.4-11.67,64.43,64.43,0,0,1,1.4-12.31h16.62v-1.77q0-23.61,13.32-36.23T884.72,387.32Z" transform="translate(-645.67 -387.32)"></path>
  <path class="cls-1" d="M975.57,390.49q35.89,0,53.29,14.53t17.38,40.28q0,27.29-18.4,43.14T976.71,504.3q-12.94,0-23.47-.89v57.48a74.79,74.79,0,0,1-14.85,1.52,76.76,76.76,0,0,1-14.72-1.52V396.2Q947,390.49,975.57,390.49Zm1.14,88.31q20,0,29.5-8.95t9.45-24.3q0-13.82-9.9-21.63t-29.43-7.8a207.71,207.71,0,0,0-23.09,1.39V478Q963.52,478.79,976.71,478.8Z" transform="translate(-645.67 -387.32)"></path>
  <path class="cls-1" d="M1165.2,520.67q0,9.14,2.85,13.13t10.6,7.55q-.51,14.83-12.18,23.22-16.62-3.69-23.09-14.09-15.87,14.34-39.34,14.34-26.26,0-42.06-16.11t-15.79-46.06q0-29.56,18.84-48.91t48.66-19.35q30.7,0,51.51,14.72ZM1109,539.32a33,33,0,0,0,26.77-12.69V465.22a57.2,57.2,0,0,0-22.33-4.69q-16.87,0-27.15,11.22T1076,502.4q0,17.39,9.2,27.15T1109,539.32Z" transform="translate(-645.67 -387.32)"></path>
</svg>
